<svg width="256" height="256" viewBox="0 0 256 256" fill="none" xmlns="http://www.w3.org/2000/svg">
  <defs>
    <linearGradient id="bg" x1="0" y1="0" x2="256" y2="256" gradientUnits="userSpaceOnUse">
      <stop offset="0" stop-color="#5FB2FF"/>
      <stop offset="0.55" stop-color="#1F6FD1"/>
      <stop offset="1" stop-color="#0E3F86"/>
    </linearGradient>
    <linearGradient id="shine" x1="0" y1="0" x2="0" y2="256" gradientUnits="userSpaceOnUse">
      <stop offset="0" stop-color="#FFFFFF" stop-opacity="0.55"/>
      <stop offset="0.35" stop-color="#FFFFFF" stop-opacity="0"/>
    </linearGradient>
    <filter id="softShadow" x="-20%" y="-20%" width="140%" height="140%" color-interpolation-filters="sRGB">
      <feDropShadow dx="0" dy="8" stdDeviation="10" flood-color="#0B2A56" flood-opacity="0.45"/>
    </filter>
  </defs>
  <rect x="12" y="12" width="232" height="232" rx="44" fill="url(#bg)"/>
  <rect x="20" y="20" width="216" height="216" rx="38" fill="url(#shine)" opacity="0.9"/>
  <rect x="12" y="12" width="232" height="232" rx="44" stroke="#B8DCFF" stroke-width="4" opacity="0.65"/>
  <rect x="18" y="18" width="220" height="220" rx="40" stroke="#0B3D7A" stroke-width="4" opacity="0.4"/>

  <g filter="url(#softShadow)" transform="translate(80 64)">
    <g opacity="0.45" transform="translate(6 6)" fill="#0A2F62">
      <rect x="0" y="0" width="24" height="120"/>
      <rect x="24" y="0" width="48" height="24"/>
      <rect x="72" y="24" width="24" height="24"/>
      <rect x="24" y="48" width="48" height="24"/>
      <polygon points="24,72 48,72 96,120 72,120"/>
    </g>

    <g fill="#F4F9FF">
      <rect x="0" y="0" width="24" height="120"/>
      <rect x="24" y="0" width="48" height="24"/>
      <rect x="72" y="24" width="24" height="24"/>
      <rect x="24" y="48" width="48" height="24"/>
      <polygon points="24,72 48,72 96,120 72,120"/>
    </g>
  </g>
</svg>
